HIERARCHY
ROOT root
{
	OFFSET	0	13.1	24.9
	CHANNELS 6  Xposition Yposition Zposition Xrotation Yrotation Zrotation
	JOINT spine_1
	{
		OFFSET	0	9.99999	0
		CHANNELS 3  Xrotation Yrotation Zrotation
		JOINT spine_2
		{
			OFFSET	0	112	-10
			CHANNELS 3  Xrotation Yrotation Zrotation
			JOINT spine_3
			{
				OFFSET	0	206.5	19.3
				CHANNELS 3  Xrotation Yrotation Zrotation
				JOINT spine_4
				{
					OFFSET	0	110.4	14.6
					CHANNELS 3  Xrotation Yrotation Zrotation
					JOINT neck_1
					{
						OFFSET	0	71.8	-50.3
						CHANNELS 3  Xrotation Yrotation Zrotation
						JOINT neck_2
						{
							OFFSET	0	86.2	-25.8
							CHANNELS 3  Xrotation Yrotation Zrotation
							JOINT head_ee
							{
								OFFSET	0	179.8	-8.7
								CHANNELS 3  Xrotation Yrotation Zrotation
								End Site
								{
									OFFSET	1	0	0
								}
							}
						}
					}
					JOINT left_clavicle
					{
						OFFSET	-43.2	22.4	-70.8
						CHANNELS 3  Xrotation Yrotation Zrotation
						JOINT left_shoulder
						{
							OFFSET	-93.9	-5.79999	48.7
							CHANNELS 3  Xrotation Yrotation Zrotation
							JOINT left_elbow
							{
								OFFSET	-291.4	-30.8	15.2
								CHANNELS 3  Xrotation Yrotation Zrotation
								JOINT left_lowarm_twist
								{
									OFFSET	-110.7	-3.89999	13.6
									CHANNELS 3  Xrotation Yrotation Zrotation
									JOINT left_hand
									{
										OFFSET	-110.7	-3.89999	13.6
										CHANNELS 3  Xrotation Yrotation Zrotation
										JOINT left_ee
										{
											OFFSET	-80.8	-5.10001	12.1
											CHANNELS 3  Xrotation Yrotation Zrotation
											End Site
											{
												OFFSET	1	0	0
											}
										}
									}
								}
							}
						}
					}
					JOINT right_clavicle
					{
						OFFSET	43.2	22.4	-70.8
						CHANNELS 3  Xrotation Yrotation Zrotation
						JOINT right_shoulder
						{
							OFFSET	93.9	-5.79999	48.7
							CHANNELS 3  Xrotation Yrotation Zrotation
							JOINT right_elbow
							{
								OFFSET	291.4	-30.8	15.2
								CHANNELS 3  Xrotation Yrotation Zrotation
								JOINT right_lowarm_twist
								{
									OFFSET	110.7	-3.89999	13.6
									CHANNELS 3  Xrotation Yrotation Zrotation
									JOINT right_hand
									{
										OFFSET	110.7	-3.89999	13.6
										CHANNELS 3  Xrotation Yrotation Zrotation
										JOINT right_ee
										{
											OFFSET	80.8	-5.10001	12.1
											CHANNELS 3  Xrotation Yrotation Zrotation
											End Site
											{
												OFFSET	1	0	0
											}
										}
									}
								}
							}
						}
					}
				}
			}
		}
	}
	JOINT left_hip
	{
		OFFSET	-82.8	-127.5	0.300001
		CHANNELS 3  Xrotation Yrotation Zrotation
		JOINT left_knee
		{
			OFFSET	-28.2	-396.7	2.2
			CHANNELS 3  Xrotation Yrotation Zrotation
			JOINT left_ankle
			{
				OFFSET	-11.7	-411.3	35.4
				CHANNELS 3  Xrotation Yrotation Zrotation
				JOINT left_toes
				{
					OFFSET	0	-60	-88.6
					CHANNELS 3  Xrotation Yrotation Zrotation
					JOINT left_foot_ee
					{
						OFFSET	-22.5	-16.5	-42.2
						CHANNELS 3  Xrotation Yrotation Zrotation
						End Site
						{
							OFFSET	1	0	0
						}
					}
				}
			}
		}
	}
	JOINT right_hip
	{
		OFFSET	82.8	-127.5	0.300001
		CHANNELS 3  Xrotation Yrotation Zrotation
		JOINT right_knee
		{
			OFFSET	28.2	-396.7	2.2
			CHANNELS 3  Xrotation Yrotation Zrotation
			JOINT right_ankle
			{
				OFFSET	11.7	-411.3	35.4
				CHANNELS 3  Xrotation Yrotation Zrotation
				JOINT right_toes
				{
					OFFSET	0	-60	-88.6
					CHANNELS 3  Xrotation Yrotation Zrotation
					JOINT right_foot_ee
					{
						OFFSET	22.5	-16.5	-42.2
						CHANNELS 3  Xrotation Yrotation Zrotation
						End Site
						{
							OFFSET	1	0	0
						}
					}
				}
			}
		}
	}
}
MOTION
Frames: 6
Frame Time: 0.02
1155.51 757.835 -1072.28 172.585 -67.7397 169.501 -1.69805 0.373951 0.617927 -1.6979 0.333874 0.640469 -1.69387 0.171155 0.701694 -1.69445 0.279824 0.66586 1.06528 2.13733 -4.38056 1.18802 7.41863 -4.58169 -0.0 0.0 -0.0 11.3218 1.50231 22.3033 -27.5679 -6.02819 52.6807 0.510236 -14.185 0.0634857 72.8513 -3.04148 -8.15658 -0.725995 6.22879 -2.14224 -0.0 0.0 -0.0 11.2075 12.7266 -22.4648 -7.65952 26.2144 -48.0135 0.985374 26.0177 -0.227657 76.6771 3.46104 8.41147 -1.2678 -11.1069 3.48076 0.0 0.0 0.0 24.3741 -2.47553 0.637753 -66.4106 -2.93051 9.19198 34.2279 25.2595 -4.58665 38.5326 -0.0 -0.0 -0.0 0.0 -0.0 9.5851 -28.4131 7.8634 -19.9714 -0.295979 -3.03498 39.47 6.2622 4.90584 33.9951 -0.0 -0.0 0.0 0.0 0.0 
1165.33 757.145 -1067.0 171.82 -68.4104 168.114 -1.96628 0.351045 0.703967 -1.96605 0.30554 0.724877 -1.9618 0.119835 0.777455 -1.96256 0.241113 0.748775 1.19771 2.42281 -3.25623 1.28506 6.99011 -3.33574 -0.0 0.0 -0.0 11.1136 1.80669 21.8453 -27.8903 -5.82121 52.5737 0.49572 -13.797 0.059976 73.7284 -3.13615 -8.21747 -1.04211 7.97256 -3.43453 -0.0 0.0 -0.0 11.1043 13.1754 -22.2223 -7.01849 26.4343 -45.7733 1.0792 28.1283 -0.270366 76.5594 3.44788 8.40405 -0.893475 -10.6653 1.29111 0.0 0.0 0.0 28.0588 -1.93525 2.35118 -65.9119 -2.87103 9.14307 33.1681 26.4835 -4.50603 39.1056 -0.0 -0.0 -0.0 0.0 -0.0 7.76387 -27.3216 8.28307 -19.6656 -0.299468 -2.98819 39.7061 6.11147 4.92384 34.5634 -0.0 -0.0 0.0 0.0 0.0 
1190.81 752.568 -1056.43 167.504 -69.5522 163.608 -2.52082 0.32115 0.693494 -2.5206 0.276372 0.712523 -2.51674 0.0872007 0.759252 -2.51748 0.206013 0.735954 1.25748 2.65005 -2.37376 1.32227 6.65677 -2.35372 -0.0 0.0 -0.0 10.982 2.08468 21.5507 -28.216 -5.67803 52.7272 0.482636 -13.4463 0.0568946 74.3399 -3.20269 -8.25907 -1.27207 9.28592 -4.33266 -0.0 0.0 -0.0 11.2151 13.4651 -22.4638 -6.50891 26.6455 -44.3388 1.15969 29.8754 -0.309398 76.4761 3.43858 8.39878 -0.616601 -10.2868 -0.313075 0.0 0.0 0.0 31.071 -1.42843 3.36915 -64.9719 -2.7601 9.0495 32.4398 27.2398 -4.447 39.5067 -0.0 -0.0 -0.0 0.0 -0.0 6.89332 -26.4401 9.07289 -19.2876 -0.303435 -2.93033 39.7747 5.99121 4.92778 34.9357 -0.0 -0.0 0.0 0.0 0.0 
1200.78 755.718 -1052.83 167.445 -70.825 162.567 -2.52478 0.259773 0.900299 -2.52435 0.201961 0.915003 -2.5205 -0.0360681 0.936331 -2.5217 0.112254 0.930277 1.30939 2.81085 -1.46724 1.35449 6.18479 -1.3506 -0.0 0.0 -0.0 10.8424 2.25193 21.2497 -28.4543 -5.56018 52.7594 0.474677 -13.2324 0.0550584 75.0391 -3.27933 -8.30576 -1.45511 10.5143 -4.94822 -0.0 0.0 -0.0 11.0162 13.7702 -22.0081 -6.31961 26.6961 -42.787 1.30842 32.9478 -0.386937 76.4167 3.43195 8.39501 -0.359611 -9.79826 -1.75198 0.0 0.0 0.0 32.0827 -1.06856 4.10802 -62.538 -2.48018 8.79897 32.6811 27.135 -4.47105 40.0055 -0.0 -0.0 -0.0 0.0 -0.0 6.33368 -25.6202 9.73689 -18.7118 -0.308744 -2.84214 39.8044 6.03545 4.93108 35.3831 -0.0 -0.0 0.0 0.0 0.0 
1213.64 754.238 -1049.91 167.188 -71.2832 161.608 -2.39226 0.22344 1.05276 -2.39166 0.156002 1.06484 -2.38799 -0.115972 1.06994 -2.38958 0.0544505 1.07483 1.30161 2.91199 -0.867489 1.33645 5.86367 -0.685339 -0.0 0.0 -0.0 10.7549 2.3263 21.064 -28.5691 -5.5229 52.7536 0.469356 -13.0892 0.0538468 75.5464 -3.33529 -8.33906 -1.58868 11.4211 -5.3817 -0.0 0.0 -0.0 10.8797 14.0297 -21.6935 -5.97232 26.8548 -41.5308 1.42938 35.2992 -0.45481 76.3754 3.42734 8.39239 -0.170784 -9.41495 -2.8057 0.0 0.0 0.0 33.3664 -0.621971 4.89681 -60.2691 -2.22912 8.55503 32.8473 27.0283 -4.4865 40.3113 -0.0 -0.0 -0.0 0.0 -0.0 5.50536 -25.1641 9.61781 -18.4892 -0.310559 -2.80804 39.7916 6.08575 4.93081 35.6941 -0.0 -0.0 0.0 0.0 0.0 
1227.28 755.105 -1044.73 170.211 -71.5244 164.344 -2.3365 0.266391 1.21009 -2.3357 0.188856 1.22458 -2.33065 -0.122986 1.23294 -2.33276 0.0732624 1.23689 0.556485 2.56952 -1.49725 0.594679 5.79525 -1.3672 -0.0 0.0 -0.0 10.531 2.12632 20.6198 -28.2833 -5.69095 54.2447 0.46577 -12.9926 0.0530377 77.0938 -3.50775 -8.43753 -1.9979 14.9002 -6.30427 -0.0 0.0 -0.0 10.9658 14.1664 -21.8823 -5.36893 26.9209 -40.6595 1.55511 37.6064 -0.529527 75.6738 3.34938 8.34734 0.32969 -6.96058 -5.05271 0.0 0.0 0.0 34.3036 -0.206627 5.35816 -48.4815 -1.0925 7.14193 29.7026 26.6931 -4.11588 37.1662 -0.0 -0.0 -0.0 0.0 -0.0 3.43177 -24.4694 8.97432 -16.979 -0.319371 -2.5765 39.7556 5.58534 4.91954 37.23 -0.0 -0.0 0.0 0.0 0.0 
